<?xml version="1.0" encoding="UTF-8" standalone="no"?>
<!-- Created with Inkscape (http://www.inkscape.org/) -->

<svg
   xmlns:dc="http://purl.org/dc/elements/1.1/"
   xmlns:cc="http://creativecommons.org/ns#"
   xmlns:rdf="http://www.w3.org/1999/02/22-rdf-syntax-ns#"
   xmlns:svg="http://www.w3.org/2000/svg"
   xmlns="http://www.w3.org/2000/svg"
   xmlns:sodipodi="http://sodipodi.sourceforge.net/DTD/sodipodi-0.dtd"
   xmlns:inkscape="http://www.inkscape.org/namespaces/inkscape"
   width="36.688889mm"
   height="12.784667mm"
   viewBox="0 0 130 45.300001"
   id="svg2"
   version="1.1"
   inkscape:version="0.91 r13725">
  <defs
     id="defs4" />
  <sodipodi:namedview
     id="base"
     pagecolor="#ffffff"
     bordercolor="#666666"
     borderopacity="1.0"
     inkscape:pageopacity="0.0"
     inkscape:pageshadow="2"
     inkscape:zoom="0.35"
     inkscape:cx="-504.28571"
     inkscape:cy="-200.20714"
     inkscape:document-units="px"
     inkscape:current-layer="layer1"
     showgrid="false"
     fit-margin-top="0"
     fit-margin-left="0"
     fit-margin-right="0"
     fit-margin-bottom="0"
     inkscape:window-width="1920"
     inkscape:window-height="1017"
     inkscape:window-x="-4"
     inkscape:window-y="-4"
     inkscape:window-maximized="1" />
  <metadata
     id="metadata7">
    <rdf:RDF>
      <cc:Work
         rdf:about="">
        <dc:format>image/svg+xml</dc:format>
        <dc:type
           rdf:resource="http://purl.org/dc/dcmitype/StillImage" />
        <dc:title></dc:title>
      </cc:Work>
    </rdf:RDF>
  </metadata>
  <g
     inkscape:label="Layer 1"
     inkscape:groupmode="layer"
     id="layer1"
     transform="translate(-449.28571,-286.85506)">
    <g
       id="g3414"
       transform="translate(217.58571,98.355062)">
      <g
         id="g3341">
        <path
           id="path3343"
           d="m 277.1,200.3 0,-5.2 c 0,-1.2 -0.7,-1.6 -1.4,-1.6 -0.7,0 -1.4,0.4 -1.4,1.5 l 0,5.2 -2.1,0 0,-5.2 c 0,-1.2 -0.7,-1.6 -1.4,-1.6 -0.7,0 -1.4,0.4 -1.4,1.6 l 0,5.2 -2.1,0 0,-8.6 2.1,0 0,0.8 c 0.6,-0.6 1.4,-0.9 2.1,-0.9 1,0 1.7,0.3 2.3,1.1 0.7,-0.8 1.5,-1.1 2.6,-1.1 0.9,0 1.6,0.3 2.1,0.8 0.7,0.7 0.9,1.5 0.9,2.4 l 0,5.5 -2.3,0 z"
           inkscape:connector-curvature="0" />
        <path
           id="path3345"
           d="m 283.2,196.7 c 0,1.1 0.7,1.9 1.9,1.9 0.9,0 1.4,-0.3 1.9,-0.8 l 1.3,1.3 c -0.9,0.9 -1.7,1.4 -3.3,1.4 -2,0 -4,-0.9 -4,-4.4 0,-2.8 1.5,-4.4 3.7,-4.4 2.4,0 3.7,1.7 3.7,4.1 l 0,1 -5.2,0 z m 3,-2.4 c -0.2,-0.5 -0.7,-0.9 -1.4,-0.9 -0.7,0 -1.2,0.4 -1.4,0.9 -0.1,0.3 -0.2,0.5 -0.2,0.9 l 3.3,0 c -0.1,-0.4 -0.1,-0.6 -0.3,-0.9 z"
           inkscape:connector-curvature="0" />
        <path
           id="path3347"
           d="m 293.2,200.3 c -1.7,0 -2.5,-1.2 -2.5,-2.5 l 0,-4.3 -0.9,0 0,-1.6 0.9,0 0,-2.5 2.1,0 0,2.5 1.5,0 0,1.6 -1.5,0 0,4.1 c 0,0.5 0.2,0.8 0.7,0.8 l 0.8,0 0,1.8 -1.1,0 z"
           inkscape:connector-curvature="0" />
        <path
           id="path3349"
           d="m 300.9,194 c -0.3,-0.3 -0.6,-0.5 -1.1,-0.5 -0.7,0 -1.4,0.5 -1.4,1.6 l 0,5.2 -2.1,0 0,-8.6 2.1,0 0,0.8 c 0.4,-0.5 1.2,-0.9 2.2,-0.9 0.8,0 1.4,0.2 2,0.8 l -1.7,1.6 z"
           inkscape:connector-curvature="0" />
        <path
           id="path3351"
           d="m 309.1,199.3 c -0.5,0.6 -1.4,1.1 -2.7,1.1 -1.3,0 -2.1,-0.5 -2.7,-1.1 -0.8,-0.8 -1,-1.8 -1,-3.3 0,-1.6 0.2,-2.5 1,-3.3 0.5,-0.6 1.4,-1.1 2.7,-1.1 1.3,0 2.1,0.5 2.7,1.1 0.8,0.8 1,1.8 1,3.3 0,1.5 -0.2,2.5 -1,3.3 z m -1.6,-5.4 c -0.2,-0.2 -0.6,-0.4 -1,-0.4 -0.4,0 -0.7,0.1 -1,0.4 -0.4,0.4 -0.5,1.2 -0.5,2.1 0,0.9 0,1.6 0.5,2.1 0.2,0.2 0.6,0.4 1,0.4 0.4,0 0.8,-0.1 1,-0.4 0.4,-0.4 0.5,-1.2 0.5,-2.1 0,-0.9 -0.1,-1.7 -0.5,-2.1 z"
           inkscape:connector-curvature="0" />
        <path
           id="path3353"
           d="m 318.4,199.6 c -0.5,0.5 -1.3,0.8 -2.1,0.8 -0.9,0 -1.5,-0.2 -2.1,-0.9 l 0,3.9 -2.1,0 0,-11.7 2.1,0 0,0.8 c 0.6,-0.7 1.2,-0.9 2.1,-0.9 0.8,0 1.6,0.3 2.1,0.8 0.9,0.9 0.9,2.3 0.9,3.6 0,1.3 0,2.7 -0.9,3.6 z m -2.7,-6.1 c -1.3,0 -1.5,1.1 -1.5,2.5 0,1.4 0.2,2.5 1.5,2.5 1.3,0 1.5,-1.1 1.5,-2.5 -0.1,-1.4 -0.2,-2.5 -1.5,-2.5 z"
           inkscape:connector-curvature="0" />
        <path
           id="path3355"
           d="m 327.2,199.3 c -0.5,0.6 -1.4,1.1 -2.7,1.1 -1.3,0 -2.1,-0.5 -2.7,-1.1 -0.8,-0.8 -1,-1.8 -1,-3.3 0,-1.6 0.2,-2.5 1,-3.3 0.5,-0.6 1.4,-1.1 2.7,-1.1 1.3,0 2.1,0.5 2.7,1.1 0.8,0.8 1,1.8 1,3.3 0,1.5 -0.2,2.5 -1,3.3 z m -1.6,-5.4 c -0.2,-0.2 -0.6,-0.4 -1,-0.4 -0.4,0 -0.7,0.1 -1,0.4 -0.4,0.4 -0.5,1.2 -0.5,2.1 0,0.9 0,1.6 0.5,2.1 0.2,0.2 0.6,0.4 1,0.4 0.4,0 0.8,-0.1 1,-0.4 0.4,-0.4 0.5,-1.2 0.5,-2.1 0,-0.9 -0.1,-1.7 -0.5,-2.1 z"
           inkscape:connector-curvature="0" />
        <path
           id="path3357"
           d="m 332.6,200.3 c -1.8,0 -2.5,-1.2 -2.5,-2.5 l 0,-9.3 2.1,0 0,9.2 c 0,0.5 0.2,0.8 0.8,0.8 l 0.8,0 0,1.8 -1.2,0 z"
           inkscape:connector-curvature="0" />
        <path
           id="path3359"
           d="m 335.5,190.2 0,-1.7 2.2,0 0,1.7 -2.2,0 z m 0,10.1 0,-8.6 2.1,0 0,8.6 -2.1,0 z"
           inkscape:connector-curvature="0" />
        <path
           id="path3361"
           d="m 342.7,200.3 c -1.7,0 -2.5,-1.2 -2.5,-2.5 l 0,-4.3 -0.9,0 0,-1.6 0.9,0 0,-2.5 2.1,0 0,2.5 1.5,0 0,1.6 -1.5,0 0,4.1 c 0,0.5 0.2,0.8 0.7,0.8 l 0.8,0 0,1.8 -1.1,0 z"
           inkscape:connector-curvature="0" />
        <path
           id="path3363"
           d="m 350.1,200.3 0,-0.7 c -0.6,0.6 -1.1,0.8 -2.1,0.8 -1,0 -1.7,-0.2 -2.2,-0.8 -0.5,-0.5 -0.7,-1.2 -0.7,-1.9 0,-1.4 0.9,-2.5 2.9,-2.5 l 2,0 0,-0.4 c 0,-0.9 -0.5,-1.4 -1.6,-1.4 -0.8,0 -1.2,0.2 -1.6,0.7 l -1.4,-1.3 c 0.8,-0.9 1.7,-1.2 3.1,-1.2 2.4,0 3.7,1 3.7,3 l 0,5.7 -2.1,0 z m 0,-3.6 -1.7,0 c -0.8,0 -1.2,0.4 -1.2,1 0,0.6 0.4,1 1.2,1 0.6,0 1,0 1.4,-0.4 0.2,-0.2 0.3,-0.6 0.3,-1.1 l 0,-0.5 z"
           inkscape:connector-curvature="0" />
        <path
           id="path3365"
           d="m 359.5,200.3 0,-5.2 c 0,-1.2 -0.7,-1.6 -1.4,-1.6 -0.7,0 -1.4,0.4 -1.4,1.6 l 0,5.2 -2.1,0 0,-8.6 2.1,0 0,0.8 c 0.6,-0.6 1.4,-0.9 2.1,-0.9 0.9,0 1.6,0.3 2,0.8 0.7,0.7 0.9,1.5 0.9,2.4 l 0,5.5 -2.2,0 z"
           inkscape:connector-curvature="0" />
      </g>
      <g
         id="g3367">
        <path
           id="path3369"
           d="m 237,216.4 -2.7,-4.4 -1.8,2.1 0,2.3 -0.8,0 0,-11.7 0.8,0 0,8.3 3.9,-4.5 1.1,0 -2.6,3 3.2,5 -1.1,0 z"
           inkscape:connector-curvature="0" />
        <path
           id="path3371"
           d="m 244.8,215.6 c -0.6,0.6 -1.3,0.9 -2.2,0.9 -0.9,0 -1.6,-0.3 -2.2,-0.9 -0.8,-0.8 -1,-2.1 -1,-3.2 0,-1.1 0.1,-2.4 1,-3.2 0.6,-0.6 1.3,-0.9 2.2,-0.9 0.9,0 1.6,0.3 2.2,0.9 0.8,0.8 1,2.1 1,3.2 0,1.1 -0.2,2.4 -1,3.2 z m -0.6,-5.9 c -0.4,-0.4 -1,-0.7 -1.6,-0.7 -0.6,0 -1.2,0.2 -1.6,0.7 -0.7,0.7 -0.7,1.7 -0.7,2.7 0,0.9 0,2 0.7,2.7 0.4,0.4 1,0.7 1.6,0.7 0.6,0 1.2,-0.2 1.6,-0.7 0.7,-0.7 0.7,-1.7 0.7,-2.7 0,-0.9 0,-2 -0.7,-2.7 z"
           inkscape:connector-curvature="0" />
        <path
           id="path3373"
           d="m 253.8,216.4 0,-4.9 c 0,-1.5 -0.8,-2.4 -2.2,-2.4 -1.4,0 -2.2,0.9 -2.2,2.4 l 0,4.9 -0.8,0 0,-8 0.8,0 0,0.9 c 0.6,-0.7 1.4,-1 2.3,-1 0.9,0 1.6,0.3 2.1,0.8 0.5,0.5 0.8,1.3 0.8,2.2 l 0,5.1 -0.8,0 z"
           inkscape:connector-curvature="0" />
        <path
           id="path3375"
           d="m 258.7,209 0,7.3 -0.8,0 0,-7.3 -1.1,0 0,-0.6 1.1,0 0,-1.7 c 0,-1.2 0.7,-2.1 1.9,-2.1 l 0.7,0 0,0.7 -0.5,0 c -0.8,0 -1.2,0.5 -1.2,1.3 l 0,1.7 1.8,0 0,0.6 -1.9,0 z"
           inkscape:connector-curvature="0" />
        <path
           id="path3377"
           d="m 262.7,212.6 c 0,2 0.9,3.1 2.6,3.1 0.9,0 1.5,-0.3 2.2,-1 l 0.6,0.5 c -0.8,0.8 -1.6,1.2 -2.9,1.2 -2.2,0 -3.4,-1.4 -3.4,-4.1 0,-2.6 1.2,-4.1 3.2,-4.1 2,0 3.2,1.5 3.2,3.9 l 0,0.4 -5.5,0 z m 4.4,-2.2 c -0.3,-0.8 -1.2,-1.3 -2.1,-1.3 -0.9,0 -1.7,0.5 -2.1,1.3 -0.2,0.5 -0.2,0.7 -0.3,1.5 l 4.7,0 c 0,-0.8 0,-1 -0.2,-1.5 z"
           inkscape:connector-curvature="0" />
        <path
           id="path3379"
           d="m 275.3,209.7 c -0.5,-0.5 -0.8,-0.6 -1.5,-0.6 -1.4,0 -2.1,1.1 -2.1,2.4 l 0,4.9 -0.8,0 0,-8 0.8,0 0,1.1 c 0.5,-0.7 1.4,-1.2 2.3,-1.2 0.8,0 1.4,0.2 1.9,0.8 l -0.6,0.6 z"
           inkscape:connector-curvature="0" />
        <path
           id="path3381"
           d="m 277.4,212.6 c 0,2 0.9,3.1 2.6,3.1 0.9,0 1.5,-0.3 2.2,-1 l 0.6,0.5 c -0.8,0.8 -1.6,1.2 -2.9,1.2 -2.2,0 -3.4,-1.4 -3.4,-4.1 0,-2.6 1.2,-4.1 3.2,-4.1 2,0 3.2,1.5 3.2,3.9 l 0,0.4 -5.5,0 z m 4.4,-2.2 c -0.3,-0.8 -1.2,-1.3 -2.1,-1.3 -0.9,0 -1.7,0.5 -2.1,1.3 -0.2,0.5 -0.2,0.7 -0.3,1.5 l 4.7,0 c 0,-0.8 0,-1 -0.2,-1.5 z"
           inkscape:connector-curvature="0" />
        <path
           id="path3383"
           d="m 290.8,216.4 0,-4.9 c 0,-1.5 -0.8,-2.4 -2.2,-2.4 -1.4,0 -2.2,0.9 -2.2,2.4 l 0,4.9 -0.8,0 0,-8 0.8,0 0,0.9 c 0.6,-0.7 1.4,-1 2.3,-1 0.9,0 1.6,0.3 2.1,0.8 0.5,0.5 0.8,1.3 0.8,2.2 l 0,5.1 -0.8,0 z"
           inkscape:connector-curvature="0" />
        <path
           id="path3385"
           d="m 294,216.4 0,-0.8 4.8,-6.4 -4.5,0 0,-0.7 5.4,0 0,0.8 -4.8,6.4 4.8,0 0,0.7 -5.7,0 z"
           inkscape:connector-curvature="0" />
      </g>
      <g
         id="g3387">
        <path
           id="path3389"
           d="m 266.5,233.7 0,-1.7 3.8,-5 -3.6,0 0,-1.9 6.3,0 0,1.6 -3.9,5 3.9,0 0,1.9 -6.5,0 z"
           inkscape:connector-curvature="0" />
        <path
           id="path3391"
           d="m 279.9,233.7 0,-0.8 c -0.6,0.6 -1.4,0.9 -2.1,0.9 -0.9,0 -1.6,-0.3 -2,-0.8 -0.7,-0.7 -0.9,-1.5 -0.9,-2.4 l 0,-5.5 2.1,0 0,5.2 c 0,1.2 0.7,1.6 1.4,1.6 0.7,0 1.4,-0.4 1.4,-1.6 l 0,-5.2 2.1,0 0,8.6 -2,0 z m -4.2,-10 0,-2.1 1.8,0 0,2.1 -1.8,0 z m 3.6,0 0,-2.1 1.8,0 0,2.1 -1.8,0 z"
           inkscape:connector-curvature="0" />
        <path
           id="path3393"
           d="m 289,227.4 c -0.3,-0.3 -0.6,-0.5 -1.1,-0.5 -0.7,0 -1.4,0.5 -1.4,1.6 l 0,5.2 -2.1,0 0,-8.6 2.1,0 0,0.8 c 0.4,-0.5 1.2,-0.9 2.2,-0.9 0.8,0 1.4,0.2 2,0.8 l -1.7,1.6 z"
           inkscape:connector-curvature="0" />
        <path
           id="path3395"
           d="m 291.8,223.6 0,-1.7 2.2,0 0,1.7 -2.2,0 z m 0,10.1 0,-8.6 2.1,0 0,8.6 -2.1,0 z"
           inkscape:connector-curvature="0" />
        <path
           id="path3397"
           d="m 299.7,233.8 c -1.7,0 -3.8,-0.9 -3.8,-4.4 0,-3.5 2.1,-4.4 3.8,-4.4 1.2,0 2.1,0.4 2.8,1.2 l -1.5,1.5 c -0.4,-0.5 -0.8,-0.7 -1.4,-0.7 -0.5,0 -0.9,0.2 -1.2,0.6 -0.3,0.4 -0.5,1 -0.5,1.9 0,0.9 0.1,1.5 0.5,1.9 0.3,0.4 0.7,0.6 1.2,0.6 0.6,0 0.9,-0.2 1.4,-0.7 l 1.5,1.4 c -0.7,0.7 -1.6,1.1 -2.8,1.1 z"
           inkscape:connector-curvature="0" />
        <path
           id="path3399"
           d="m 309.1,233.7 0,-5.2 c 0,-1.1 -0.7,-1.5 -1.4,-1.5 -0.7,0 -1.4,0.4 -1.4,1.5 l 0,5.2 -2.1,0 0,-11.7 2.1,0 0,3.9 c 0.6,-0.6 1.3,-0.9 2.1,-0.9 1.9,0 2.9,1.3 2.9,3.1 l 0,5.6 -2.2,0 z"
           inkscape:connector-curvature="0" />
      </g>
      <g
         id="g3401">
        <rect
           id="rect3403"
           height="27.200001"
           width="27.200001"
           class="st0"
           y="206.39999"
           x="319.10001"
           style="fill:#a3d4ef" />
        <rect
           id="rect3405"
           height="18"
           width="18"
           class="st1"
           y="211"
           x="323.60001"
           style="fill:#62bfe8" />
        <rect
           id="rect3407"
           height="8.3999996"
           width="8.3999996"
           class="st2"
           y="215.8"
           x="328.39999"
           style="fill:#16abdf" />
      </g>
    </g>
  </g>
  <style
     id="style3339"
     type="text/css">
	.st0{fill:#A3D4EF;}
	.st1{fill:#62BFE8;}
	.st2{fill:#16ABDF;}
</style>
</svg>
