<?xml version="1.0" encoding="utf-8"?>
<!-- Generator: Adobe Illustrator 16.0.0, SVG Export Plug-In . SVG Version: 6.00 Build 0)  -->
<!DOCTYPE svg PUBLIC "-//W3C//DTD SVG 1.1//EN" "http://www.w3.org/Graphics/SVG/1.1/DTD/svg11.dtd">
<svg version="1.1"
	 id="svg8" xmlns:dc="http://purl.org/dc/elements/1.1/" xmlns:cc="http://creativecommons.org/ns#" xmlns:rdf="http://www.w3.org/1999/02/22-rdf-syntax-ns#" xmlns:svg="http://www.w3.org/2000/svg" xmlns:sodipodi="http://sodipodi.sourceforge.net/DTD/sodipodi-0.dtd" xmlns:inkscape="http://www.inkscape.org/namespaces/inkscape" sodipodi:docname="mockup.svg" inkscape:version="0.92.2 (5c3e80d, 2017-08-06)" inkscape:export-ydpi="100.02691" inkscape:export-xdpi="100.02691" inkscape:export-filename="/home/oleg/Clients/SmartUse/static/img/mockup.png"
	 xmlns="http://www.w3.org/2000/svg" xmlns:xlink="http://www.w3.org/1999/xlink" x="0px" y="0px" width="640.711px"
	 height="1239.548px" viewBox="0 34.445 640.711 1239.548" enable-background="new 0 34.445 640.711 1239.548" xml:space="preserve"
	>
<rect id="rect24" x="0" y="220.009" fill="#FFFFFF" fill-opacity="0" stroke="#000000" stroke-width="0.25" stroke-opacity="0.502" width="640.711" height="298.768"/>
<sodipodi:namedview  showgrid="false" inkscape:cy="699.47045" inkscape:cx="482.15866" inkscape:zoom="1.1176136" borderopacity="1.0" bordercolor="#666666" pagecolor="#ffffff" id="base" inkscape:window-maximized="1" inkscape:window-y="27" inkscape:window-x="0" inkscape:window-height="1016" inkscape:window-width="1920" inkscape:pageshadow="2" inkscape:current-layer="layer1" inkscape:pageopacity="0.0" inkscape:document-units="mm">
	</sodipodi:namedview>
<text transform="matrix(1 0 0 1 112.0881 171.1987)" font-family="'Roboto-Bold'" font-size="15">Tree Density in Greater Z端rich</text>
<text transform="matrix(1 0 0 1 184.8049 629.1987)" font-family="'Roboto-Bold'" font-size="15">Titles</text>
<text transform="matrix(1 0 0 1 184.8049 1101.1987)" font-family="'Roboto-Bold'" font-size="15">Title 2</text>
<text transform="matrix(1 0 0 1 112.717 184.7554)" font-family="'Roboto-Regular'" font-size="7.0209">Gr端n Stadt Z端rich, Tiefbau- und Entsorgungsdepartement</text>
<text transform="matrix(1 0 0 1 112.2854 205.4224)" font-family="'Roboto-Regular'" font-size="7.0209">Stand April 2015</text>
<text transform="matrix(1 0 0 1 112.717 194.2554)" fill="#A0A0A0" font-family="'Roboto-Regular'" font-size="7.0209">https://data.stadt-zuerich.ch/dataset/baumkataster</text>
<text transform="matrix(1 0 0 1 566.05 417.2607)" enable-background="new    "><tspan x="0" y="0" font-family="'Roboto-Light'" font-size="7.0209">Next Story:</tspan><tspan x="0" y="8.424" font-family="'Roboto-Medium'" font-size="7.0209">Vorhandene</tspan><tspan x="0" y="16.85" font-family="'Roboto-Medium'" font-size="7.0209">Reserven</tspan></text>
<text transform="matrix(1 0 0 1 51.1926 417.2607)" enable-background="new    "><tspan x="0" y="0" font-family="'Roboto-Light'" font-size="7.0209">Previous Story:</tspan><tspan x="0" y="8.424" font-family="'Roboto-Medium'" font-size="7.0209">Funktionale</tspan><tspan x="0" y="16.85" font-family="'Roboto-Medium'" font-size="7.0209">Bez端ge</tspan></text>
<rect id="rect26" x="390.133" y="186.524" fill="#FFFFFF" fill-opacity="0" stroke="#000000" stroke-width="0.265" stroke-opacity="0.502" width="21.505" height="20.072"/>
<text transform="matrix(1 0 0 1 398.6584 202.604)" font-family="'Roboto-Bold'" font-size="14">?</text>
<ellipse id="path32" fill="#FFFFFF" fill-opacity="0" stroke="#000000" stroke-width="0.5" stroke-opacity="0.502" cx="296.364" cy="372.184" rx="12.5" ry="12.5"/>
<rect id="rect34" x="316.686" y="368.411" fill="#DCDCDC" fill-opacity="0" stroke="#000000" stroke-width="0.265" stroke-opacity="0.502" width="130.054" height="76.366"/>
<g id="flowRoot40" transform="matrix(0.26458333,0,0,0.26458333,6.8654465,-43.796814)">
</g>
<g id="flowRoot48" transform="matrix(0.26458333,0,0,0.26458333,17.755466,-47.703016)">
</g>
<rect id="rect60" x="420.091" y="186.524" fill-opacity="0" stroke="#000000" stroke-width="0.468" stroke-opacity="0.502" width="124.148" height="20.072"/>
<text transform="matrix(0.9561 0 0 1 434.76 201.6446)" font-family="'Roboto-Bold'" font-size="13.5263">Share &amp; Discuss</text>
<g id="flowRoot76" transform="matrix(0.26458333,0,0,0.26458333,-20.714709,15.331576)">
</g>
<rect id="rect85" x="184.805" y="876.24" fill-opacity="0" stroke="#008000" stroke-width="0.265" stroke-opacity="0.502" width="327.333" height="173.205"/>
<rect id="rect87" x="269.405" y="946.632" fill-opacity="0" stroke="#008000" stroke-width="0.3092" stroke-opacity="0.502" width="24.704" height="68.996"/>
<rect id="rect89" x="294.171" y="962.675" fill-opacity="0" stroke="#008000" stroke-width="0.265" stroke-opacity="0.502" width="26.843" height="53.016"/>
<rect id="rect91" x="320.967" y="922.363" fill-opacity="0" stroke="#008000" stroke-width="0.2316" stroke-opacity="0.502" width="26.939" height="93.377"/>
<g id="flowRoot101" transform="matrix(0.26458333,0,0,0.26458333,-46.045839,-13.717437)">
</g>
<rect x="145.717" y="486.722" fill="#FFFFFF" stroke="#000000" stroke-width="0.25" width="15" height="15"/>
<text transform="matrix(1 0 0 1 149.7253 498.8336)" font-family="'Roboto-Bold'" font-size="11.25">1</text>
<g>
	<rect x="219.217" y="486.722" fill="#FFFFFF" stroke="#000000" stroke-width="0.25" width="15" height="15"/>
	<text transform="matrix(1 0 0 1 223.2253 498.8336)" font-family="'Roboto-Bold'" font-size="11.25">3</text>
</g>
<linearGradient id="rect123_1_" gradientUnits="userSpaceOnUse" x1="166.1853" y1="688.278" x2="200.0388" y2="688.278" gradientTransform="matrix(-1.239063e-007 -2.8346 -2.8346 1.239063e-007 2488.6953 813.5298)">
	<stop  offset="0" style="stop-color:#000000"/>
	<stop  offset="1" style="stop-color:#000000;stop-opacity:0"/>
</linearGradient>
<rect id="rect123" x="531.154" y="246.47" fill="url(#rect123_1_)" stroke="#008000" stroke-width="0.265" stroke-opacity="0.502" width="13.086" height="95.963"/>
<text transform="matrix(1 0 0 1 521.1379 253.9449)" font-family="'Roboto-Bold'" font-size="9">0</text>
<text transform="matrix(1 0 0 1 512.1379 342.4332)" font-family="'Roboto-Bold'" font-size="9">800</text>
<text transform="matrix(1 0 0 1 509.5481 229.7789)" enable-background="new    "><tspan x="0" y="0" font-family="'Roboto-Regular'" font-size="8">Height of </tspan><tspan x="-1.926" y="9.6" font-family="'Roboto-Regular'" font-size="8">trees (cm)</tspan></text>
<rect id="rect149" x="349.24" y="506.445" fill="#FFFFFF" fill-opacity="0" stroke="#000000" stroke-width="0.25" stroke-opacity="0.502" width="195" height="12.332"/>
<text transform="matrix(1 0 0 1 353.8528 514.7223)" font-family="'HelveticaNeueLTPro-Roman'" font-size="6.0474">(C) Open Street Map. The data comes from the Tiefbauamt.</text>
<text transform="matrix(6.123234e-017 -1 1 6.123234e-017 536.05 1032.2848)" font-family="'HelveticaNeueLTPro-Roman'" font-size="11.25">Embed</text>
<rect id="rect159" x="521.273" y="984.287" fill-opacity="0" stroke="#008000" stroke-width="0.212" stroke-opacity="0.502" width="22.967" height="52.492"/>
<g id="flowRoot1014" transform="matrix(0.26458333,0,0,0.26458333,-20.714709,93.692362)">
</g>
<text transform="matrix(1 0 0 1 367.9895 961.4938)" font-family="'HelveticaNeueLTPro-Roman'" font-size="11.25">Image..</text>
<text transform="matrix(1 0 0 1 367.9895 972.7438)" font-family="'HelveticaNeueLTPro-Roman'" font-size="11.25">Graph..</text>
<text transform="matrix(1 0 0 1 367.9895 983.9938)" font-family="'HelveticaNeueLTPro-Roman'" font-size="11.25">Video..</text>
<text transform="matrix(1 0 0 1 367.9895 995.2438)" font-family="'HelveticaNeueLTPro-Roman'" font-size="11.25">etc.</text>
<g>
	<path d="M120.328,115.336h3.379v-13.433h-3.604v9.51c-0.215,0.397-0.526,0.707-0.93,0.93c-0.408,0.224-0.933,0.336-1.579,0.336
		c-0.281,0-0.538-0.038-0.77-0.112c-0.229-0.073-0.433-0.191-0.6-0.353c-0.172-0.161-0.302-0.375-0.399-0.64
		c-0.096-0.265-0.143-0.584-0.143-0.956v-8.716h-3.588v8.691c0,0.884,0.107,1.645,0.322,2.277s0.519,1.15,0.914,1.551
		c0.395,0.403,0.863,0.697,1.41,0.884c0.546,0.186,1.149,0.278,1.812,0.278c0.817,0,1.528-0.142,2.134-0.422
		s1.118-0.679,1.543-1.192L120.328,115.336L120.328,115.336z M133.16,112.65c-0.352,0.26-0.871,0.391-1.56,0.391
		c-0.324,0-0.629-0.038-0.924-0.111c-0.294-0.075-0.554-0.19-0.778-0.348c-0.224-0.158-0.4-0.362-0.537-0.614
		c-0.137-0.253-0.215-0.553-0.232-0.901h-3.4c0,0.546,0.125,1.088,0.371,1.626c0.25,0.54,0.619,1.023,1.113,1.453
		c0.49,0.43,1.098,0.778,1.816,1.043c0.723,0.265,1.553,0.397,2.498,0.397c0.861,0,1.638-0.103,2.334-0.311
		c0.695-0.207,1.29-0.492,1.779-0.856c0.495-0.365,0.872-0.796,1.138-1.298c0.266-0.5,0.396-1.049,0.396-1.646
		c0-0.66-0.127-1.226-0.382-1.695c-0.259-0.466-0.614-0.864-1.063-1.191s-0.986-0.593-1.607-0.801
		c-0.619-0.205-1.294-0.381-2.025-0.521c-0.461-0.09-0.853-0.19-1.172-0.298c-0.318-0.107-0.576-0.226-0.771-0.353
		c-0.193-0.129-0.332-0.269-0.42-0.423c-0.088-0.153-0.13-0.329-0.13-0.528c0-0.421,0.166-0.769,0.496-1.042s0.797-0.41,1.401-0.41
		c0.703,0,1.221,0.166,1.553,0.503c0.332,0.334,0.498,0.759,0.498,1.271h3.586c0-0.627-0.129-1.208-0.391-1.738
		c-0.259-0.529-0.633-0.987-1.115-1.372c-0.487-0.384-1.074-0.686-1.77-0.901c-0.696-0.215-1.479-0.322-2.348-0.322
		c-0.834,0-1.586,0.112-2.252,0.336c-0.668,0.223-1.229,0.528-1.688,0.912c-0.459,0.385-0.812,0.83-1.055,1.335
		c-0.245,0.504-0.37,1.04-0.37,1.602c0,0.58,0.121,1.089,0.361,1.527c0.241,0.438,0.575,0.823,1,1.153
		c0.426,0.332,0.933,0.61,1.516,0.833c0.581,0.223,1.217,0.409,1.906,0.559c0.56,0.117,1.02,0.235,1.379,0.36
		c0.353,0.123,0.635,0.255,0.841,0.392c0.208,0.136,0.351,0.283,0.424,0.439c0.073,0.157,0.112,0.332,0.112,0.522
		C133.688,112.046,133.512,112.387,133.16,112.65L133.16,112.65z M147.477,115.38c0.547-0.137,1.044-0.318,1.482-0.547
		c0.438-0.227,0.819-0.485,1.142-0.776c0.324-0.288,0.59-0.586,0.805-0.894l-1.76-1.973c-0.399,0.513-0.876,0.891-1.43,1.136
		c-0.553,0.244-1.157,0.366-1.812,0.366c-0.465,0-0.881-0.071-1.255-0.211c-0.373-0.14-0.698-0.337-0.973-0.589
		c-0.28-0.251-0.507-0.556-0.683-0.913c-0.18-0.354-0.298-0.753-0.355-1.192h8.554v-1.526c0-0.995-0.125-1.896-0.377-2.708
		c-0.253-0.812-0.632-1.504-1.132-2.079c-0.498-0.574-1.119-1.023-1.855-1.341s-1.591-0.479-2.559-0.479
		c-0.957,0-1.826,0.171-2.599,0.516c-0.775,0.343-1.435,0.822-1.975,1.432c-0.544,0.615-0.963,1.343-1.257,2.192
		c-0.293,0.85-0.439,1.782-0.439,2.799v0.485c0,0.901,0.151,1.749,0.454,2.539c0.301,0.791,0.739,1.48,1.314,2.067
		s1.278,1.05,2.099,1.391c0.824,0.338,1.758,0.509,2.803,0.509C146.323,115.585,146.923,115.517,147.477,115.38L147.477,115.38z
		 M146.334,104.745c0.302,0.125,0.547,0.298,0.742,0.522c0.195,0.224,0.342,0.488,0.436,0.795c0.094,0.306,0.146,0.637,0.154,0.992
		v0.287h-4.991c0.057-0.414,0.153-0.79,0.287-1.131c0.13-0.337,0.305-0.63,0.514-0.874c0.212-0.244,0.466-0.435,0.759-0.571
		s0.635-0.205,1.025-0.205C145.67,104.56,146.031,104.623,146.334,104.745L146.334,104.745z"/>
	<path d="M59.037,93.437c-0.352,0.261-0.873,0.391-1.558,0.391c-0.324,0-0.632-0.036-0.927-0.111
		c-0.293-0.074-0.552-0.19-0.775-0.348c-0.223-0.156-0.402-0.361-0.539-0.615c-0.136-0.251-0.214-0.552-0.229-0.898h-3.403
		c0,0.547,0.124,1.089,0.372,1.626s0.619,1.021,1.112,1.453c0.493,0.431,1.099,0.779,1.818,1.042
		c0.721,0.265,1.551,0.397,2.496,0.397c0.862,0,1.639-0.104,2.334-0.31c0.696-0.208,1.289-0.493,1.782-0.857
		c0.492-0.363,0.873-0.797,1.136-1.297c0.264-0.502,0.397-1.049,0.397-1.645c0-0.664-0.128-1.228-0.385-1.695
		s-0.61-0.865-1.062-1.192c-0.449-0.327-0.986-0.594-1.606-0.801c-0.62-0.208-1.296-0.38-2.024-0.521
		c-0.464-0.093-0.856-0.19-1.174-0.298c-0.317-0.107-0.575-0.226-0.769-0.355c-0.194-0.128-0.334-0.269-0.422-0.421
		c-0.088-0.153-0.13-0.33-0.13-0.527c0-0.423,0.165-0.771,0.497-1.045C56.307,85.137,56.775,85,57.379,85
		c0.703,0,1.221,0.168,1.551,0.502c0.332,0.336,0.498,0.761,0.498,1.274h3.588c0-0.63-0.131-1.209-0.391-1.738
		c-0.263-0.53-0.634-0.986-1.118-1.372s-1.074-0.684-1.77-0.9c-0.695-0.215-1.477-0.323-2.346-0.323
		c-0.836,0-1.587,0.111-2.254,0.334c-0.666,0.225-1.228,0.527-1.688,0.913c-0.46,0.386-0.812,0.83-1.056,1.334
		c-0.244,0.506-0.366,1.039-0.366,1.602c0,0.579,0.12,1.088,0.359,1.526c0.241,0.439,0.574,0.825,1.001,1.156
		c0.425,0.331,0.931,0.607,1.514,0.832c0.584,0.225,1.22,0.41,1.906,0.559c0.563,0.115,1.024,0.237,1.379,0.359
		c0.354,0.125,0.636,0.254,0.844,0.391c0.207,0.137,0.349,0.284,0.422,0.442c0.074,0.158,0.112,0.331,0.112,0.521
		C59.564,92.836,59.388,93.177,59.037,93.437L59.037,93.437z M65.362,82.691v13.435h3.588v-9.499
		c0.215-0.397,0.505-0.708,0.869-0.93c0.365-0.224,0.811-0.336,1.342-0.336c0.313,0,0.597,0.034,0.85,0.099
		c0.253,0.067,0.465,0.183,0.64,0.349c0.173,0.165,0.305,0.392,0.396,0.682c0.093,0.291,0.137,0.657,0.137,1.106v8.529h3.589v-8.953
		c0-0.04-0.002-0.086-0.005-0.137c-0.004-0.05-0.007-0.094-0.007-0.136c0.19-0.471,0.471-0.846,0.844-1.125
		c0.374-0.276,0.837-0.415,1.39-0.415c0.316,0,0.596,0.031,0.845,0.093c0.249,0.063,0.459,0.175,0.635,0.336
		c0.172,0.162,0.307,0.386,0.401,0.676c0.097,0.291,0.145,0.658,0.145,1.106v8.554h3.599v-8.554c0-0.944-0.102-1.742-0.303-2.392
		c-0.205-0.649-0.493-1.177-0.869-1.582s-0.833-0.699-1.367-0.882c-0.532-0.183-1.127-0.273-1.782-0.273
		c-0.918,0-1.71,0.183-2.377,0.546c-0.665,0.365-1.218,0.866-1.656,1.502c-0.341-0.719-0.819-1.24-1.436-1.563
		c-0.615-0.323-1.327-0.485-2.129-0.485c-0.845,0-1.587,0.154-2.228,0.466c-0.644,0.31-1.186,0.737-1.634,1.284l-0.112-1.502H65.362
		L65.362,82.691z M98.784,96.126v-0.212c-0.09-0.172-0.168-0.358-0.235-0.553c-0.067-0.194-0.12-0.413-0.161-0.657
		c-0.042-0.244-0.074-0.517-0.099-0.819c-0.025-0.301-0.038-0.643-0.038-1.024v-5.688c0-0.787-0.134-1.476-0.404-2.066
		c-0.27-0.591-0.643-1.084-1.124-1.479c-0.479-0.392-1.05-0.689-1.713-0.887c-0.661-0.198-1.382-0.298-2.159-0.298
		c-0.869,0-1.655,0.115-2.358,0.341c-0.704,0.228-1.304,0.535-1.802,0.926c-0.497,0.389-0.879,0.845-1.147,1.365
		c-0.269,0.521-0.405,1.071-0.405,1.652h3.589c0-0.506,0.171-0.903,0.516-1.192c0.344-0.291,0.817-0.435,1.422-0.435
		c0.687,0,1.188,0.187,1.508,0.558c0.318,0.373,0.478,0.869,0.478,1.489v0.771h-1.601c-1.027,0-1.927,0.098-2.701,0.298
		c-0.774,0.198-1.422,0.488-1.943,0.869c-0.521,0.381-0.912,0.845-1.175,1.391c-0.259,0.546-0.391,1.17-0.391,1.875
		c0,0.587,0.117,1.128,0.348,1.619c0.232,0.493,0.553,0.917,0.962,1.273c0.409,0.356,0.895,0.634,1.453,0.832
		c0.557,0.198,1.161,0.298,1.807,0.298c0.794,0,1.465-0.14,2.016-0.422c0.552-0.282,1.008-0.625,1.372-1.03
		c0.075,0.479,0.195,0.881,0.361,1.205H98.784L98.784,96.126z M90.902,93.195c-0.316-0.291-0.473-0.657-0.473-1.106
		c0-0.298,0.054-0.571,0.162-0.825c0.107-0.252,0.273-0.472,0.498-0.658c0.223-0.187,0.508-0.33,0.855-0.435
		c0.349-0.104,0.757-0.154,1.229-0.154h1.478v2.309c-0.091,0.166-0.213,0.327-0.367,0.485c-0.154,0.157-0.333,0.295-0.54,0.416
		c-0.207,0.12-0.44,0.216-0.703,0.292c-0.259,0.075-0.542,0.111-0.85,0.111C91.645,93.63,91.215,93.485,90.902,93.195L90.902,93.195
		z M108.605,82.605c-0.131-0.042-0.305-0.079-0.513-0.111c-0.214-0.033-0.413-0.05-0.604-0.05c-0.662,0-1.24,0.164-1.737,0.491
		s-0.915,0.781-1.254,1.359l-0.099-1.602h-3.39v13.435h3.588v-8.791c0.208-0.446,0.527-0.788,0.962-1.024
		c0.435-0.237,1.004-0.354,1.707-0.354c0.191,0,0.409,0.01,0.653,0.031c0.245,0.022,0.458,0.043,0.639,0.068L108.605,82.605
		L108.605,82.605z"/>
	<path d="M111.609,79.389v3.302h-1.961v2.632h1.961v7.089c0,0.712,0.093,1.321,0.272,1.825c0.186,0.505,0.441,0.915,0.779,1.23
		c0.334,0.313,0.736,0.543,1.21,0.688c0.472,0.145,0.999,0.217,1.588,0.217c0.446,0,0.847-0.031,1.198-0.094
		c0.352-0.061,0.676-0.138,0.977-0.229v-2.718c-0.136,0.025-0.29,0.046-0.469,0.061c-0.176,0.018-0.371,0.025-0.586,0.025
		c-0.234,0-0.435-0.018-0.605-0.054c-0.167-0.039-0.313-0.107-0.429-0.212c-0.115-0.104-0.202-0.247-0.259-0.428
		c-0.058-0.182-0.087-0.415-0.087-0.696v-6.705h2.298v-2.632h-2.298v-3.302H111.609L111.609,79.389z"/>
	
		<line fill="none" stroke="#000000" stroke-width="0.5" stroke-linecap="square" stroke-miterlimit="10" x1="51.193" y1="102.059" x2="110.285" y2="102.059"/>
</g>
<g>
	<rect x="166.634" y="486.472" fill="#DCDCDC" stroke="#000000" stroke-width="0.25" width="47.504" height="15.25"/>
	<text transform="matrix(1 0 0 1 171.2253 498.8336)" enable-background="new    "><tspan x="0" y="0" font-family="'Roboto-Bold'" font-size="11.25">2 </tspan><tspan x="9.256" y="0" font-family="'Roboto-Regular'" font-size="11.25">Trees</tspan></text>
</g>
<rect x="184.805" y="643.445" fill="none" width="309.682" height="222"/>
<text transform="matrix(1 0 0 1 184.8049 649.4449)"><tspan x="0" y="0" font-family="'Roboto-Regular'" font-size="8">Donec ut ullamcorper nisl, quis auctor velit. Mauris sit amet posuere metus. Nulla urna </tspan><tspan x="0" y="12" font-family="'Roboto-Regular'" font-size="8">purus, finibus et arcu venenatis, semper lacinia diam. Orci varius natoque penatibus et </tspan><tspan x="0" y="24" font-family="'Roboto-Regular'" font-size="8">magnis dis parturient montes, nascetur ridiculus mus. Sed et ante ante. Integer blandit, </tspan><tspan x="0" y="36" font-family="'Roboto-Regular'" font-size="8">ipsum blandit dignissim scelerisque, ex sapien pulvinar diam, quis facilisis dolor justo </tspan><tspan x="0" y="48" font-family="'Roboto-Regular'" font-size="8">in dui. Praesent interdum dui ut orci rutrum euismod. Nam porta odio at dapibus </tspan><tspan x="0" y="60" font-family="'Roboto-Regular'" font-size="8">molestie. Sed nisi leo, pellentesque quis convallis sit amet, commodo quis nibh. Etiam </tspan><tspan x="0" y="72" font-family="'Roboto-Regular'" font-size="8">pharetra diam vitae orci laoreet varius. Etiam non velit consequat, mattis turpis ac, </tspan><tspan x="0" y="84" font-family="'Roboto-Regular'" font-size="8">egestas velit. Fusce porta dolor neque, ut sagittis sem ornare sed. Aenean dictum </tspan><tspan x="0" y="96" font-family="'Roboto-Regular'" font-size="8">fermentum magna, vel iaculis justo porta ut. Aenean vulputate gravida metus, </tspan><tspan x="0" y="108" font-family="'Roboto-Regular'" font-size="8">consectetur vestibulum justo mollis id. Aenean consequat quis diam quis luctus. </tspan><tspan x="0" y="120" font-family="'Roboto-Regular'" font-size="8">Pellentesque accumsan ac augue eu luctus.</tspan><tspan x="0" y="144" font-family="'Roboto-Regular'" font-size="8">Nam sed odio rhoncus, mattis lacus ut, dapibus odio. Phasellus sapien justo, auctor vel </tspan><tspan x="0" y="156" font-family="'Roboto-Regular'" font-size="8">facilisis nec, mattis eget nisl. Nulla placerat condimentum nunc, et imperdiet nisl </tspan><tspan x="0" y="168" font-family="'Roboto-Regular'" font-size="8">egestas vitae. Donec dictum convallis tellus quis venenatis. Integer tortor eros, </tspan><tspan x="0" y="180" font-family="'Roboto-Regular'" font-size="8">accumsan eu ex vitae, commodo commodo orci. Class aptent taciti sociosqu ad litora </tspan><tspan x="0" y="192" font-family="'Roboto-Regular'" font-size="8">torquent per conubia nostra, per inceptos himenaeos. Sed consequat odio ut sapien </tspan><tspan x="0" y="204" font-family="'Roboto-Regular'" font-size="8">tempus vulputate. Donec mollis est sed felis sodales, eu tincidunt risus laoreet.</tspan></text>
<rect x="184.805" y="1109.445" fill="none" width="309.682" height="155"/>
<text transform="matrix(1 0 0 1 184.8049 1115.4449)"><tspan x="0" y="0" font-family="'Roboto-Regular'" font-size="8">Donec ut ullamcorper nisl, quis auctor velit. Mauris sit amet posuere metus. Nulla urna </tspan><tspan x="0" y="12" font-family="'Roboto-Regular'" font-size="8">purus, finibus et arcu venenatis, semper lacinia diam. Orci varius natoque penatibus et </tspan><tspan x="0" y="24" font-family="'Roboto-Regular'" font-size="8">magnis dis parturient montes, nascetur ridiculus mus. Sed et ante ante. Integer blandit, </tspan><tspan x="0" y="36" font-family="'Roboto-Regular'" font-size="8">ipsum blandit dignissim scelerisque, ex sapien pulvinar diam, quis facilisis dolor justo </tspan><tspan x="0" y="48" font-family="'Roboto-Regular'" font-size="8">in dui. Praesent interdum dui ut orci rutrum euismod. Nam porta odio at dapibus </tspan><tspan x="0" y="60" font-family="'Roboto-Regular'" font-size="8">molestie. Sed nisi leo, pellentesque quis convallis sit amet, commodo quis nibh. Etiam </tspan><tspan x="0" y="72" font-family="'Roboto-Regular'" font-size="8">pharetra diam vitae orci laoreet varius. Etiam non velit consequat, mattis turpis ac, </tspan><tspan x="0" y="84" font-family="'Roboto-Regular'" font-size="8">egestas velit. Fusce porta dolor neque, ut sagittis sem ornare sed. Aenean dictum </tspan><tspan x="0" y="96" font-family="'Roboto-Regular'" font-size="8">fermentum magna, vel iaculis justo porta ut. Aenean vulputate gravida metus, </tspan><tspan x="0" y="108" font-family="'Roboto-Regular'" font-size="8">consectetur vestibulum justo mollis id. Aenean consequat quis diam quis luctus. </tspan><tspan x="0" y="120" font-family="'Roboto-Regular'" font-size="8">Pellentesque accumsan ac augue eu luctus.</tspan></text>
<rect x="120.717" y="530.445" fill="none" width="398.336" height="71.334"/>
<text transform="matrix(1 0 0 1 120.717 536.4449)"><tspan x="0" y="0" font-family="'Roboto-Italic'" font-size="8">Donec ut ullamcorper nisl, quis auctor velit. Mauris sit amet posuere metus. Nulla urna purus, finibus et arcu </tspan><tspan x="0" y="12" font-family="'Roboto-Italic'" font-size="8">venenatis, semper lacinia diam. Orci varius natoque penatibus et magnis dis parturient montes, nascetur ridiculus </tspan><tspan x="0" y="24" font-family="'Roboto-Italic'" font-size="8">mus. Sed et ante ante. Integer blandit, ipsum blandit dignissim scelerisque, ex sapien pulvinar diam, quis facilisis </tspan><tspan x="0" y="36" font-family="'Roboto-Italic'" font-size="8">dolor justo in dui.</tspan></text>
<g>
	<line fill="none" stroke="#000000" stroke-width="2" stroke-linecap="round" x1="569.614" y1="328.54" x2="597.33" y2="362.197"/>
	<line fill="none" stroke="#000000" stroke-width="2" stroke-linecap="round" x1="569.614" y1="396.276" x2="597.33" y2="362.62"/>
</g>
<g>
	<line fill="none" stroke="#000000" stroke-width="2" stroke-linecap="round" x1="78.909" y1="328.54" x2="51.193" y2="362.197"/>
	<line fill="none" stroke="#000000" stroke-width="2" stroke-linecap="round" x1="78.909" y1="396.276" x2="51.193" y2="362.62"/>
</g>
<g>
	<g>
		<path d="M135.361,487.467h-13.625c-0.199,0-0.358,0.161-0.358,0.357v6.534c0,0.199,0.161,0.357,0.358,0.357
			s0.361-0.161,0.361-0.357v-6.174h12.91v12.911h-6.214c-0.199,0-0.361,0.16-0.361,0.359c0,0.2,0.162,0.361,0.361,0.361h6.569
			c0.199,0,0.36-0.161,0.36-0.361v-13.628C135.721,487.629,135.56,487.467,135.361,487.467z"/>
		<path d="M121.375,501.453c0,0.2,0.162,0.361,0.358,0.361h4.998c0.199,0,0.36-0.161,0.36-0.361v-4.993
			c0-0.199-0.162-0.361-0.36-0.361h-4.995c-0.199,0-0.358,0.162-0.358,0.361v4.993H121.375L121.375,501.453z M122.093,496.817h4.279
			v4.279h-4.279V496.817z"/>
		<path d="M127.912,495.277c0.07,0.07,0.161,0.106,0.254,0.106c0.094,0,0.185-0.036,0.255-0.106l4.065-4.067v2.343
			c0,0.2,0.162,0.361,0.361,0.361c0.2,0,0.361-0.161,0.361-0.361v-3.208c0-0.199-0.161-0.361-0.361-0.361h-3.211
			c-0.2,0-0.361,0.162-0.361,0.361s0.161,0.36,0.361,0.36h2.343l-4.067,4.064C127.771,494.911,127.771,495.135,127.912,495.277z"/>
	</g>
</g>
</svg>
